<?xml version="1.0" ?><!DOCTYPE svg  PUBLIC '-//W3C//DTD SVG 1.1//EN'  'http://www.w3.org/Graphics/SVG/1.1/DTD/svg11.dtd'><svg height="100%" style="fill-rule:evenodd;clip-rule:evenodd;stroke-linejoin:round;stroke-miterlimit:2;" version="1.1" viewBox="0 0 512 512" width="100%" xml:space="preserve" xmlns="http://www.w3.org/2000/svg" xmlns:serif="http://www.serif.com/" xmlns:xlink="http://www.w3.org/1999/xlink"><g transform="matrix(1,0,0,1,212.5,228)"><rect height="402" id="canvas_background" style="fill:none;" width="582" x="-1" y="-1"/></g><g transform="matrix(16.046,0,0,16.046,-365.131,-193.287)"><path d="M53.091,14.948C53.091,14.948 55.449,16.588 53.091,16.895C53.091,16.895 44.275,17.92 37.714,24.072C37.714,24.072 27.872,32.681 24.182,42.113C24.182,42.113 22.953,42.113 23.364,40.268C23.773,38.422 26.233,30.325 37.201,20.38C37.2,20.381 47.761,10.746 53.091,14.948M25.105,16.178C25.207,18.434 27.155,27.044 27.155,27.044C27.872,28.787 28.488,27.044 28.488,27.044C30.845,19.971 26.028,15.872 26.028,15.872C24.797,15.154 25.105,16.178 25.105,16.178" id="svg_4" style="fill-rule:nonzero;"/></g></svg>