<?xml version="1.0" encoding="UTF-8"?> <svg xmlns="http://www.w3.org/2000/svg" id="Capa_1" data-name="Capa 1" viewBox="0 0 140 51.12"><defs><style>.cls-1,.cls-2{fill:#fff;}.cls-2{isolation:isolate;font-size:4.77px;font-family:Helvetica-Bold, Helvetica;font-weight:700;letter-spacing:-0.01em;}</style></defs><title>logo 152HB-neg</title><path class="cls-1" d="M123.4,23.34a17.53,17.53,0,0,0-4.58-.37h-4.21V29.8h4.77a23.26,23.26,0,0,0,3.53-.16,3.19,3.19,0,0,0,1.89-1,3.14,3.14,0,0,0,.72-2.16,3.33,3.33,0,0,0-.55-1.95A3.16,3.16,0,0,0,123.4,23.34Z"></path><path class="cls-1" d="M121.73,18.64a3.4,3.4,0,0,0,2.08-.92,2.7,2.7,0,0,0,.76-2,2.82,2.82,0,0,0-.65-1.92,3,3,0,0,0-1.93-.89,34.27,34.27,0,0,0-4.42-.16h-3v5.9H118Q121,18.72,121.73,18.64Z"></path><path class="cls-1" d="M76.33,1.86l.47,39.94,17.48,7.87V41.8h42.37V1.86ZM104.47,34.1H99.32V22.95H89.22V34.1H84.07V8.53h5.15v10h10.1v-10h5.15Zm25.56-4a6.82,6.82,0,0,1-2.22,2.63,7.3,7.3,0,0,1-3.46,1.21q-1.29.14-6.21.17h-8.69V8.53h10.2a29.49,29.49,0,0,1,4.52.25,6.64,6.64,0,0,1,2.67,1.16,6.57,6.57,0,0,1,2,2.13,5.79,5.79,0,0,1,.78,3A6.06,6.06,0,0,1,126,20.59a6.72,6.72,0,0,1,3.59,2.32,6.14,6.14,0,0,1,1.26,3.84A7.6,7.6,0,0,1,130,30.09Z"></path><path class="cls-1" d="M3.35,12.41V7.86a28.81,28.81,0,0,0,4.38-.42A6.16,6.16,0,0,0,11,5.7a5.92,5.92,0,0,0,1.3-2.44,5.65,5.65,0,0,0,.25-1.41h5.52v34H11.28V12.41Z"></path><path class="cls-1" d="M29.64,26.51a6.55,6.55,0,0,0,1.51,3.39,4.24,4.24,0,0,0,3.28,1.23,4.34,4.34,0,0,0,3.74-1.77,7.3,7.3,0,0,0,1.29-4.43,7.81,7.81,0,0,0-1.2-4.43,4.24,4.24,0,0,0-3.83-1.82,6.34,6.34,0,0,0-2.09.31A4.24,4.24,0,0,0,30,21.08l-5.93-.28,2.4-18.94H45V7.51H31.23L30,15a13.78,13.78,0,0,1,2.39-1.41,9.89,9.89,0,0,1,3.5-.54,10.41,10.41,0,0,1,7.27,2.82,10.73,10.73,0,0,1,3.11,8.32,13.19,13.19,0,0,1-3,8.47q-3,3.91-8.88,3.91a11.75,11.75,0,0,1-8-2.63A10.27,10.27,0,0,1,23,26.51Z"></path><path class="cls-1" d="M49.52,33.95q1.54-4,7.26-8.47a54.44,54.44,0,0,0,6.43-5.65,8.69,8.69,0,0,0,2.29-5.76,6.79,6.79,0,0,0-1.29-4.24,4.35,4.35,0,0,0-3.67-1.69,4.43,4.43,0,0,0-4.46,2.68,14.48,14.48,0,0,0-.81,4.93h-7A20.93,20.93,0,0,1,50,7.47q2.82-6,10.18-6A12.29,12.29,0,0,1,69.38,5a12.84,12.84,0,0,1,3.43,9.35,13.47,13.47,0,0,1-2.43,7.92,25.1,25.1,0,0,1-5.23,5.13l-2.82,2.25q-2.7,2.1-3.7,3.05A8.76,8.76,0,0,0,57,34.88h16v6.95H47.83A20.41,20.41,0,0,1,49.52,33.95Z"></path><text class="cls-2" transform="translate(60.26 34.08) scale(0.9 1)">media</text></svg> 