<svg xmlns="http://www.w3.org/2000/svg" width="147" height="20.104" viewBox="0 0 147 20.104">
  <g id="Grupo_1615" data-name="Grupo 1615" transform="translate(-142 -34.391)">
    <g id="Grupo_41" data-name="Grupo 41" transform="translate(142 34.391)">
      <g id="Grupo_40" data-name="Grupo 40">
        <path id="Trazado_115" data-name="Trazado 115" d="M490.875,326.222a.341.341,0,0,1,.34-.34H498.5a.341.341,0,0,1,.34.34v1.469a.34.34,0,0,1-.34.34h-5.3v2.936h4.424a.352.352,0,0,1,.34.34v1.486a.339.339,0,0,1-.34.34H493.2v3.134h5.3a.341.341,0,0,1,.34.34v1.469a.34.34,0,0,1-.34.34h-7.289a.341.341,0,0,1-.34-.34Z" transform="translate(-466.732 -318.492)" fill="#fff"/>
        <path id="Trazado_116" data-name="Trazado 116" d="M525.291,349.277v-1.2a.329.329,0,0,1,.34-.34h3.994a.329.329,0,0,1,.34.34v1.2a.327.327,0,0,1-.34.323h-3.994a.327.327,0,0,1-.34-.323" transform="translate(-489.757 -333.113)" fill="#fff"/>
        <path id="Trazado_117" data-name="Trazado 117" d="M552.345,326.222a.341.341,0,0,1,.34-.34h4.209a3.993,3.993,0,1,1,.017,7.986h-2.239v4.209a.352.352,0,0,1-.34.34h-1.648a.341.341,0,0,1-.34-.34V326.222Zm4.4,5.461a1.846,1.846,0,0,0,1.845-1.863,1.788,1.788,0,0,0-1.845-1.738h-2.078v3.6h2.078Z" transform="translate(-507.857 -318.492)" fill="#fff"/>
        <path id="Trazado_118" data-name="Trazado 118" d="M590.062,326.222a.341.341,0,0,1,.34-.34h1.648a.352.352,0,0,1,.34.34v10.047h4.567a.341.341,0,0,1,.34.34v1.469a.341.341,0,0,1-.34.34H590.4a.341.341,0,0,1-.34-.34Z" transform="translate(-533.09 -318.492)" fill="#fff"/>
        <path id="Trazado_119" data-name="Trazado 119" d="M619.8,337.585l5.571-12.051a.321.321,0,0,1,.3-.2h.179a.309.309,0,0,1,.305.2l5.515,12.051a.318.318,0,0,1-.305.467h-1.557a.513.513,0,0,1-.518-.359l-.878-1.934h-5.353l-.878,1.934a.54.54,0,0,1-.52.359H620.1a.318.318,0,0,1-.306-.467m7.737-3.815-1.79-3.94h-.054l-1.755,3.94Z" transform="translate(-552.961 -318.126)" fill="#fff"/>
        <path id="Trazado_120" data-name="Trazado 120" d="M666.355,325.659a.337.337,0,0,1,.34-.323h.447l7.451,7.915h.017v-7.395a.341.341,0,0,1,.34-.34H676.6a.351.351,0,0,1,.34.34v12.051a.337.337,0,0,1-.34.323h-.43l-7.485-8.22h-.017v7.7a.34.34,0,0,1-.34.34h-1.63a.352.352,0,0,1-.34-.34V325.659Z" transform="translate(-584.132 -318.126)" fill="#fff"/>
        <path id="Trazado_121" data-name="Trazado 121" d="M713.859,325.659a.337.337,0,0,1,.34-.323h.447l7.451,7.915h.017v-7.395a.341.341,0,0,1,.34-.34H724.1a.353.353,0,0,1,.34.34v12.051a.337.337,0,0,1-.34.323h-.43l-7.485-8.22h-.017v7.7a.34.34,0,0,1-.34.34H714.2a.352.352,0,0,1-.34-.34V325.659Z" transform="translate(-615.914 -318.126)" fill="#fff"/>
        <path id="Trazado_122" data-name="Trazado 122" d="M761.37,326.222a.352.352,0,0,1,.34-.34h1.665a.352.352,0,0,1,.34.34v11.856a.352.352,0,0,1-.34.34H761.71a.352.352,0,0,1-.34-.34Z" transform="translate(-647.7 -318.492)" fill="#fff"/>
        <path id="Trazado_123" data-name="Trazado 123" d="M783.985,325.659a.337.337,0,0,1,.34-.323h.447l7.451,7.915h.017v-7.395a.341.341,0,0,1,.34-.34h1.648a.351.351,0,0,1,.34.34v12.051a.337.337,0,0,1-.34.323h-.43l-7.485-8.22h-.017v7.7a.34.34,0,0,1-.34.34h-1.63a.352.352,0,0,1-.34-.34Z" transform="translate(-662.83 -318.126)" fill="#fff"/>
        <path id="Trazado_124" data-name="Trazado 124" d="M835.219,325.336a6.774,6.774,0,0,1,4.37,1.665.346.346,0,0,1,.017.5l-1.11,1.164a.3.3,0,0,1-.464,0,4.065,4.065,0,0,0-2.7-1.039,4.129,4.129,0,0,0,.017,8.255,5.6,5.6,0,0,0,2.132-.447v-1.521h-1.432a.326.326,0,0,1-.34-.322v-1.415a.329.329,0,0,1,.34-.34h3.439a.337.337,0,0,1,.323.34v4.583a.344.344,0,0,1-.144.286,9.031,9.031,0,0,1-4.441,1.166,6.438,6.438,0,0,1,0-12.875" transform="translate(-692.807 -318.126)" fill="#fff"/>
        <g id="Grupo_39" data-name="Grupo 39">
          <path id="Trazado_125" data-name="Trazado 125" d="M443.35,334.863l-3.19,3.19,3.19,3.19Z" transform="translate(-432.803 -324.5)" fill="#fff"/>
          <path id="Trazado_126" data-name="Trazado 126" d="M449.8,334.863l3.188,3.19-3.188,3.19Z" transform="translate(-439.25 -324.5)" fill="#fff"/>
          <path id="Trazado_127" data-name="Trazado 127" d="M456.175,354.138l-3.19,3.188-3.188-3.188Z" transform="translate(-439.25 -337.396)" fill="#fff"/>
          <path id="Trazado_128" data-name="Trazado 128" d="M456.175,347.69H449.8l3.188-3.19Z" transform="translate(-439.25 -330.948)" fill="#fff"/>
          <path id="Trazado_129" data-name="Trazado 129" d="M465.806,357.325h-6.377l3.19-3.188Z" transform="translate(-445.693 -337.396)" fill="#fff"/>
          <path id="Trazado_130" data-name="Trazado 130" d="M456.175,328.422l-3.19-3.19-3.188,3.19Z" transform="translate(-439.25 -318.057)" fill="#fff"/>
          <path id="Trazado_131" data-name="Trazado 131" d="M456.175,334.87H449.8l3.188,3.188Z" transform="translate(-439.25 -324.505)" fill="#fff"/>
          <path id="Trazado_132" data-name="Trazado 132" d="M465.806,325.232h-6.377l3.19,3.19Z" transform="translate(-445.693 -318.057)" fill="#fff"/>
          <path id="Trazado_133" data-name="Trazado 133" d="M446.835,313.191l3.188,3.188-3.188,3.19Z" transform="translate(-437.268 -310.001)" fill="#fff"/>
          <path id="Trazado_134" data-name="Trazado 134" d="M440.387,313.191l-3.19,3.188,3.19,3.19Z" transform="translate(-430.82 -310.001)" fill="#fff"/>
          <path id="Trazado_135" data-name="Trazado 135" d="M427.567,332.459l3.188,3.19,3.19-3.19Z" transform="translate(-424.377 -322.892)" fill="#fff"/>
          <path id="Trazado_136" data-name="Trazado 136" d="M427.567,326.011h6.377l-3.19-3.19Z" transform="translate(-424.377 -316.444)" fill="#fff"/>
          <path id="Trazado_137" data-name="Trazado 137" d="M417.929,335.646h6.377l-3.188-3.188Z" transform="translate(-417.929 -322.892)" fill="#fff"/>
          <path id="Trazado_138" data-name="Trazado 138" d="M427.567,306.743l3.188-3.19,3.19,3.19Z" transform="translate(-424.377 -303.553)" fill="#fff"/>
          <path id="Trazado_139" data-name="Trazado 139" d="M427.567,313.191h6.377l-3.19,3.188Z" transform="translate(-424.377 -310.001)" fill="#fff"/>
          <path id="Trazado_140" data-name="Trazado 140" d="M417.929,303.553h6.377l-3.188,3.19Z" transform="translate(-417.929 -303.553)" fill="#fff"/>
        </g>
      </g>
    </g>
  </g>
</svg>
