<?xml version="1.0" encoding="utf-8"?>
<!-- Generator: Adobe Illustrator 21.0.0, SVG Export Plug-In . SVG Version: 6.00 Build 0)  -->
<svg version="1.1" id="base" xmlns="http://www.w3.org/2000/svg" xmlns:xlink="http://www.w3.org/1999/xlink" x="0px" y="0px"
	 viewBox="0 0 70 48" style="enable-background:new 0 0 70 48;" xml:space="preserve">
<style type="text/css">
	.st0{fill:#FFFFFF;}
	.st1{fill:#ffc107;}
</style>
<rect x="7.5" y="0.5" class="st0" width="40" height="37"/>
<polygon class="st1" points="32.5,14.7 26,11 26,18.5 "/>
<path d="M28,22c-3.9,0-7-3.1-7-7s3.1-7,7-7s7,3.1,7,7S31.9,22,28,22z M28,9c-3.3,0-6,2.7-6,6s2.7,6,6,6s6-2.7,6-6S31.3,9,28,9z"/>
<g>
	<rect x="10" y="27" class="st1" width="16" height="1"/>
	<g>
		<line x1="25" y1="27.5" x2="45" y2="27.5"/>
		<rect x="25" y="27" width="20" height="1"/>
	</g>
</g>
<path d="M7,0v29v1v8h41v-8v-1V0H7z M47,37H8v-7h39V37z M8,29V1h39v28H8z"/>
<rect x="27" y="32" width="1" height="5"/>
<rect x="17" y="30" width="1" height="5"/>
<rect x="37" y="30" width="1" height="5"/>
</svg>
