<?xml version="1.0" encoding="utf-8"?>
<!-- Generator: Adobe Illustrator 21.0.0, SVG Export Plug-In . SVG Version: 6.00 Build 0)  -->
<svg version="1.1" id="SideBar" xmlns="http://www.w3.org/2000/svg" xmlns:xlink="http://www.w3.org/1999/xlink" x="0px" y="0px"
	 viewBox="0 0 70 48" enable-background="new 0 0 70 48" xml:space="preserve">
<rect x="17.5" y="0.5" fill="#FFFFFF" width="40" height="29"/>
<path d="M58,30H17V0h41V30z M18,29h39V1H18V29z"/>
<polygon fill="#ffc107" points="42.5,14.7 36,11 36,18.5 "/>
<path d="M38,22c-3.9,0-7-3.1-7-7s3.1-7,7-7s7,3.1,7,7S41.9,22,38,22z M38,9c-3.3,0-6,2.7-6,6s2.7,6,6,6s6-2.7,6-6S41.3,9,38,9z"/>
<g>
	<rect x="20" y="27" fill="#ffc107" width="16" height="1"/>
	<g>
		<line fill="none" x1="35" y1="27.5" x2="55" y2="27.5"/>
		<rect x="35" y="27" width="20" height="1"/>
	</g>
</g>
<g>
	<rect x="31" y="31" fill="#0071BC" width="21" height="1"/>
	<rect x="31" y="34" fill="#0071BC" width="16" height="1"/>
	<rect x="31" y="40" fill="#0071BC" width="21" height="1"/>
	<rect x="31" y="43" fill="#0071BC" width="16" height="1"/>
</g>
<g>
	<rect x="17.5" y="31.5" fill="#FFFFFF" width="12" height="7"/>
	<path d="M30,39H17v-8h13V39z M18,38h11v-6H18V38z"/>
</g>
<g>
	<rect x="17.5" y="40.5" fill="#FFFFFF" width="12" height="7"/>
	<path d="M30,48H17v-8h13V48z M18,47h11v-6H18V47z"/>
</g>
</svg>
