<?xml version="1.0" encoding="utf-8"?>
<!-- Generator: Adobe Illustrator 21.0.0, SVG Export Plug-In . SVG Version: 6.00 Build 0)  -->
<svg xmlns="http://www.w3.org/2000/svg" xmlns:xlink="http://www.w3.org/1999/xlink" version="1.1" id="Small" x="0px" y="0px" viewBox="0 0 70 48" xml:space="preserve" style="">
<style type="text/css">
	.st0{fill:#FFFFFF;}
	.st1{fill:#ffc107;}
	.st2{fill:#0071BC;}
</style>
<rect x="7.5" y="0.5" class="st0" width="40" height="29"></rect>
<path d="M48,30H7V0h41V30z M8,29h39V1H8V29z"></path>
<polygon class="st1" points="32.5,14.7 26,11 26,18.5 "></polygon>
<path d="M28,22c-3.9,0-7-3.1-7-7s3.1-7,7-7s7,3.1,7,7S31.9,22,28,22z M28,9c-3.3,0-6,2.7-6,6s2.7,6,6,6s6-2.7,6-6S31.3,9,28,9z"></path>
<g>
	<rect x="10" y="27" class="st1" width="16" height="1"></rect>
	<g>
		<line x1="25" y1="27.5" x2="45" y2="27.5"></line>
		<rect x="25" y="27" width="20" height="1"></rect>
	</g>
</g>

    <circle xmlns="http://www.w3.org/2000/svg" r="1" cx="8" cy="32"></circle>
    <circle xmlns="http://www.w3.org/2000/svg" r="1" cx="11" cy="32"></circle>
        <circle xmlns="http://www.w3.org/2000/svg" r="1" cx="14" cy="32"></circle>
            <circle xmlns="http://www.w3.org/2000/svg" r="1" cx="17" cy="32"></circle>
                <circle xmlns="http://www.w3.org/2000/svg" r="1" cx="20" cy="32"></circle>
 <a xlink:href="http://www.kleinefische.com"><polygon fill="none" points="162,263.3 251.6,256 252.7,273.3 163,280.5"></polygon><text transform="matrix(0.9967 -8.087198e-02 8.087198e-02 0.9967 162.7812 272.6545)" fill="#FFFFFF" font-family="'TradeGothicLT-Bold'" font-size="12.9937">/AGENTUR</text></a>

<rect x="7" y="34.3" class="st2" width="22" height="1"></rect>
<rect x="7" y="36.5" class="st2" width="26" height="1"></rect>

<rect xmlns="http://www.w3.org/2000/svg" id="SpinBox_Body" ry="0.5" height="4.8" width="10" stroke="#000" y="32" x="37.8" stroke-width="0.5" fill="#FFF"></rect><text x="39.2" y="35" fill="#000" style="font-size:1.5px;font-weight:bold">Read More</text>



</svg>