<?xml version="1.0" encoding="utf-8"?>
<!-- Generator: Adobe Illustrator 21.0.0, SVG Export Plug-In . SVG Version: 6.00 Build 0)  -->
<svg version="1.1" id="Small" xmlns="http://www.w3.org/2000/svg" xmlns:xlink="http://www.w3.org/1999/xlink" x="0px" y="0px"
	 viewBox="0 0 70 48" style="enable-background:new 0 0 70 48;" xml:space="preserve">
<style type="text/css">
	.st0{fill:#FFFFFF;}
	.st1{fill:#ffc107;}
	.st2{fill:none;}
</style>
<rect x="22.5" y="0.5" class="st0" width="29" height="39.9"/>
<path d="M22,41V0h30v41H22z M23,1v39h28V1H23z"/>
<g>
	<polygon class="st1" points="41.5,20.2 35,16.5 35,24 	"/>
	<path d="M37,27.5c-3.9,0-7-3.1-7-7s3.1-7,7-7s7,3.1,7,7S40.9,27.5,37,27.5z M37,14.5c-3.3,0-6,2.7-6,6s2.7,6,6,6s6-2.7,6-6
		S40.3,14.5,37,14.5z"/>
</g>
<g>
	<rect x="25" y="38" class="st1" width="8.6" height="1"/>
	<g>
		<line class="st2" x1="33.6" y1="38.5" x2="49" y2="38.5"/>
		<rect x="33.6" y="38" width="15.3" height="1"/>
	</g>
</g>
</svg>
