<?xml version="1.0" encoding="utf-8"?>
<!-- Generator: Adobe Illustrator 21.0.0, SVG Export Plug-In . SVG Version: 6.00 Build 0)  -->
<svg version="1.1" id="base" xmlns="http://www.w3.org/2000/svg" xmlns:xlink="http://www.w3.org/1999/xlink" x="0px" y="0px"
	 viewBox="0 0 70 48" style="enable-background:new 0 0 70 48;" xml:space="preserve">
<style type="text/css">
	.st0{fill:#FFFFFF;}
	.st1{fill:#ffc107;}
	.st2{fill:#0071BC;}
</style>
<rect x="7.5" y="0.5" class="st0" width="40" height="29"/>
<path d="M48,30H7V0h41V30z M8,29h39V1H8V29z"/>
<polygon class="st1" points="32.5,14.7 26,11 26,18.5 "/>
<path d="M28,22c-3.9,0-7-3.1-7-7s3.1-7,7-7s7,3.1,7,7S31.9,22,28,22z M28,9c-3.3,0-6,2.7-6,6s2.7,6,6,6s6-2.7,6-6S31.3,9,28,9z"/>
<g>
	<rect x="10" y="27" class="st1" width="16" height="1"/>
	<g>
		<line x1="25" y1="27.5" x2="45" y2="27.5"/>
		<rect x="25" y="27" width="20" height="1"/>
	</g>
</g>
<g>
	<path d="M65.4,18l-0.5-0.9l3.6-2.1L64.9,13l0.5-0.9l4.3,2.5c0.2,0.1,0.3,0.3,0.3,0.4s-0.1,0.3-0.3,0.4L65.4,18z"/>
</g>
<g>
	<path d="M4.6,18l-4.3-2.5C0.1,15.4,0,15.2,0,15.1s0.1-0.3,0.3-0.4l4.3-2.5L5.1,13L1.5,15l3.6,2.1L4.6,18z"/>
</g>
<g>
	<rect x="50" class="st2" width="13" height="1"/>
	<rect x="50" y="3" class="st2" width="13" height="1"/>
	<rect x="50" y="9" class="st2" width="13" height="1"/>
	<rect x="50" y="6" class="st2" width="13" height="1"/>
	<rect x="50" y="15" class="st2" width="13" height="1"/>
	<rect x="50" y="21" class="st2" width="13" height="1"/>
	<rect x="50" y="24" class="st2" width="13" height="1"/>
	<rect x="50" y="27" class="st2" width="9" height="1"/>
	<rect x="50" y="18" class="st2" width="13" height="1"/>
	<rect x="50" y="12" class="st2" width="13" height="1"/>
</g>
</svg>
