<?xml version="1.0" encoding="utf-8"?>
<!-- Generator: Adobe Illustrator 21.0.0, SVG Export Plug-In . SVG Version: 6.00 Build 0)  -->
<svg version="1.1" id="Small" xmlns="http://www.w3.org/2000/svg" xmlns:xlink="http://www.w3.org/1999/xlink" x="0px" y="0px"
	 viewBox="0 0 70 48" style="enable-background:new 0 0 70 48;" xml:space="preserve">
<style type="text/css">
	.st0{fill:#FFFFFF;}
	.st1{fill:#ffc107;}
	.st2{fill:none;}
	.st3{fill:#0071BC;}
</style>
<rect x="7.5" y="0.5" class="st0" width="40" height="29"/>
<path d="M48,30H7V0h41V30z M8,29h39V1H8V29z"/>
<polygon class="st1" points="32.5,14.7 26,11 26,18.5 "/>
<path d="M28,22c-3.9,0-7-3.1-7-7s3.1-7,7-7s7,3.1,7,7S31.9,22,28,22z M28,9c-3.3,0-6,2.7-6,6s2.7,6,6,6s6-2.7,6-6S31.3,9,28,9z"/>
<g>
	<rect x="10" y="27" class="st1" width="16" height="1"/>
	<g>
		<line class="st2" x1="25" y1="27.5" x2="45" y2="27.5"/>
		<rect x="25" y="27" width="20" height="1"/>
	</g>
</g>
<rect x="50.5" y="0.5" class="st0" width="9" height="8"/>
<path d="M60,9H50V0h10V9z M51,8h8V1h-8V8z"/>
<g>
	<rect x="50.5" y="10.5" class="st0" width="9" height="8"/>
	<path d="M60,19H50v-9h10V19z M51,18h8v-7h-8V18z"/>
</g>
<g>
	<rect x="50.5" y="20.5" class="st0" width="9" height="8"/>
	<path d="M60,29H50v-9h10V29z M51,28h8v-7h-8V28z"/>
</g>
<rect x="62" class="st3" width="8" height="1"/>
<rect x="62" y="3" class="st3" width="8" height="1"/>
<rect x="62" y="6" class="st3" width="6" height="1"/>
<rect x="62" y="10" class="st3" width="8" height="1"/>
<rect x="62" y="13" class="st3" width="8" height="1"/>
<rect x="62" y="16" class="st3" width="6" height="1"/>
<rect x="62" y="20" class="st3" width="8" height="1"/>
<rect x="62" y="23" class="st3" width="8" height="1"/>
<rect x="62" y="26" class="st3" width="6" height="1"/>
</svg>
