<?xml version="1.0" encoding="utf-8"?>
<!-- Generator: Adobe Illustrator 19.2.1, SVG Export Plug-In . SVG Version: 6.00 Build 0)  -->
<svg version="1.1" id="layer" xmlns="http://www.w3.org/2000/svg" xmlns:xlink="http://www.w3.org/1999/xlink" x="0px" y="0px"
	 viewBox="0 0 652 652" style="enable-background:new 0 0 652 652;" xml:space="preserve">
<style type="text/css">
	.st0{fill:#E7342B;}
	.st1{fill:#462941;}
</style>
<rect x="567.7" y="317.3" class="st0" width="53.1" height="7.3"/>
<rect x="567.7" y="288.9" class="st0" width="53.1" height="7.3"/>
<g>
	<path class="st0" d="M58.2,354.4L43.8,330H32.3v24.4H20.8v-65.5h28.8c13,0,21.5,8.3,21.5,20.5c0,11.6-7.7,18-15.6,19.2l16.1,25.7
		H58.2z M59.3,309.4c0-6.3-4.7-10.3-11.2-10.3H32.3v20.8h15.8C54.5,319.9,59.3,315.7,59.3,309.4"/>
	<polygon class="st0" points="95.2,354.4 95.2,299.1 75.4,299.1 75.4,288.9 126.5,288.9 126.5,299.1 106.7,299.1 106.7,354.4 	"/>
	<path class="st0" d="M134.3,354.4v-65.5h32.2c12.1,0,18.7,7.5,18.7,16.7c0,8.2-5.3,13.7-11.4,15c7.1,1.1,12.7,8.1,12.7,16
		c0,10.2-6.7,17.8-19,17.8H134.3z M173.4,307.5c0-4.8-3.3-8.4-9.1-8.4h-18.5v16.9h18.5C170,315.9,173.4,312.5,173.4,307.5
		 M174.6,335.2c0-4.9-3.4-9.1-9.9-9.1h-19v18.3h19C170.9,344.3,174.6,340.9,174.6,335.2"/>
	<polygon class="st1" points="254.7,354.4 254.7,324.4 216.4,324.4 216.4,354.4 208.2,354.4 208.2,288.9 216.4,288.9 216.4,317.1 
		254.7,317.1 254.7,288.9 262.8,288.9 262.8,354.4 	"/>
	<path class="st1" d="M273.5,321.7c0-19.3,13.2-33.9,32.5-33.9c19.3,0,32.6,14.5,32.6,33.9c0,19.3-13.3,33.9-32.6,33.9
		C286.7,355.6,273.5,341.1,273.5,321.7 M330.2,321.7c0-15.3-9.5-26.6-24.2-26.6c-14.7,0-24.1,11.3-24.1,26.6
		c0,15.2,9.3,26.6,24.1,26.6C320.6,348.3,330.2,337,330.2,321.7"/>
	<path class="st1" d="M349.3,329v-40.1h8.2v39.9c0,12,6.4,19.5,18.5,19.5c12.1,0,18.6-7.6,18.6-19.5v-39.9h8.3v40
		c0,16.3-9,26.7-26.8,26.7C358.3,355.6,349.3,345.1,349.3,329"/>
	<path class="st1" d="M412.2,345.2l4.9-6.3c4.2,4.9,11.3,9.4,20.5,9.4c11.7,0,15.4-6.3,15.4-11.4c0-16.9-38.8-7.5-38.8-30.8
		c0-10.8,9.6-18.3,22.6-18.3c9.9,0,17.7,3.4,23.2,9.2l-4.9,6c-4.9-5.5-11.8-7.9-19-7.9c-7.8,0-13.4,4.2-13.4,10.4
		c0,14.7,38.8,6.3,38.8,30.7c0,9.4-6.5,19.2-24.2,19.2C426.1,355.6,417.6,351.3,412.2,345.2"/>
	<polygon class="st1" points="471.7,354.4 471.7,288.9 514.6,288.9 514.6,296.2 479.9,296.2 479.9,317.3 514.6,317.3 514.6,324.6 
		479.9,324.6 479.9,347.2 514.6,347.2 514.6,354.4 	"/>
</g>
</svg>
