<?xml version="1.0" encoding="utf-8"?>
<!-- Generator: Adobe Illustrator 16.0.0, SVG Export Plug-In . SVG Version: 6.00 Build 0)  -->
<!DOCTYPE svg PUBLIC "-//W3C//DTD SVG 1.1//EN" "http://www.w3.org/Graphics/SVG/1.1/DTD/svg11.dtd">
<svg version="1.1" id="Layer_1" xmlns="http://www.w3.org/2000/svg" xmlns:xlink="http://www.w3.org/1999/xlink" x="0px" y="0px"
	 width="324.479px" height="72.322px" viewBox="0 0 324.479 72.322" enable-background="new 0 0 324.479 72.322"
	 xml:space="preserve">
<g id="Group_11705" transform="translate(-260 -43.771)">
	<g id="smaato" transform="translate(260 43.771)">
		<path id="Path_1" fill="#4BBBEB" d="M0,58.665c0.189,8.246,6.8,13.657,17.939,13.657c8.812,0,17.247-4.656,17.247-13.469
			c0-5.538-2.519-9.314-9.882-11.33l-11.142-2.899c-3.776-0.881-5.413-2.9-5.413-5.226c0-3.399,3.4-6.294,8.623-6.294
			c5.539,0,8.246,2.33,8.813,7.365h7.742c0-6.484-4.154-13.469-16.365-13.469c-10.952,0-16.869,5.916-16.869,13.093
			c0,5.224,2.707,9.315,9.693,11.14l8.245,2.141c6.483,1.637,8.436,3.21,8.436,6.105c0,2.519-1.951,6.294-9.316,6.294
			c-5.036,0-9.315-2.328-9.882-6.986H0V58.665z M106.061,71.254h8.246V43.936c0-11.33-8.058-16.87-18.317-16.87
			c-6.294,0-12.589,1.951-15.421,7.364c-3.965-6.294-9.127-7.364-13.974-7.364c-5.036,0-10.952,1.825-13.093,6.106h-0.188v-5.225
			h-8.31v43.241h8.246V45.194c0-7.176,5.225-11.142,12.022-11.142c5.728,0,10.386,3.212,10.386,10.765v26.372H83.9v-26
			c0-7.176,5.224-11.142,12.021-11.142c5.729,0,10.387,3.212,10.387,10.765v26.372h-0.252v0.064L106.061,71.254z M156.861,46.83
			c-4.28-3.587-9.693-4.846-14.729-4.846c-13.28,0-20.646,6.987-20.646,14.916c0,9.693,9.127,15.421,20.646,15.421
			c6.295,0,10.952-1.637,15.107-5.54v4.658h7.679V41.984c0-10.261-10.574-14.729-21.899-14.729
			c-5.834,0.026-11.614,1.114-17.059,3.211l3.588,6.1c4.108-1.886,8.572-2.875,13.093-2.899c6.482,0,14.162,1.637,14.162,8.812
			L156.861,46.83z M157.05,57.091c0,4.154-3.399,8.622-13.47,8.622c-10.069,0-13.47-4.281-13.47-8.622
			c0-4.156,3.4-8.624,13.47-8.624c10.07,0,13.466,4.469,13.466,8.625L157.05,57.091z M208.727,46.83
			c-4.28-3.587-9.693-4.846-14.729-4.846c-13.28,0-20.646,6.987-20.646,14.916c0,9.693,9.127,15.421,20.646,15.421
			c6.294,0,10.952-1.637,15.107-5.54v4.658h7.742V41.984c0-10.261-10.575-14.729-21.9-14.729
			c-5.834,0.026-11.614,1.114-17.058,3.211l3.588,6.1c4.108-1.886,8.571-2.875,13.092-2.899c6.484,0,14.162,1.637,14.162,8.812
			v4.343L208.727,46.83z M209.105,57.091c0,4.154-3.4,8.622-13.47,8.622c-10.07,0-13.471-4.281-13.471-8.622
			c0-4.156,3.4-8.624,13.471-8.624c10.069,0,13.465,4.469,13.465,8.625L209.105,57.091z M230.821,28.01h-6.672v6.483h6.672v27.443
			c0,6.673,2.518,9.317,10.952,9.317h5.026v-6.8h-3.776c-3.211,0-3.966-0.882-3.966-3.21V34.872h7.553v-6.671h-7.55V17.814h-8.246
			L230.821,28.01z M261.349,49.158c0,8.518,6.904,15.422,15.421,15.422s15.421-6.904,15.421-15.421
			c0-8.518-6.904-15.422-15.421-15.422l0,0c-8.378-0.141-15.285,6.536-15.426,14.914c-0.003,0.169-0.003,0.338,0,0.508
			L261.349,49.158z M253.796,49.158c0-12.688,10.287-22.975,22.976-22.975s22.975,10.286,22.975,22.975
			c0,12.689-10.286,22.976-22.975,22.976c-12.671,0.021-22.959-10.233-22.98-22.904c0-0.023,0-0.047,0-0.07L253.796,49.158z
			 M287.345,13.093l-1.953,6.673c9.037,2.622,16.383,9.227,19.949,17.936l6.483-2.141c-4.219-10.893-13.271-19.198-24.485-22.468
			H287.345z M288.983,6.987c13.156,3.834,23.771,13.588,28.7,26.374l6.8-2.14c-5.587-15.076-17.946-26.643-33.36-31.22
			L288.983,6.987L288.983,6.987z"/>
	</g>
</g>
</svg>
