<svg style="width: 80px;" aria-labelledby="title" width="112px" height="23px" viewBox="0 0 112 23" version="1.1" xmlns="http://www.w3.org/2000/svg" xmlns:xlink="http://www.w3.org/1999/xlink">
<title id="title" lang="en">Sovrn Logo Bars</title>
<g id="Symbols" stroke="none" stroke-width="1" fill="none" fill-rule="evenodd">
<g id="Footer-Current-Restyled" transform="translate(-584.000000, -32.000000)" fill="#282828" style="fill: #FFF;">
<g id="Logo" transform="translate(584.000000, 32.000000)">
<path d="M110.152889,15.9338137 L110.152889,9.83407843 C110.152889,8.64078431 110.067111,7.51040196 109.897111,6.47314706 C109.714889,5.36666667 109.361333,4.38398039 108.846222,3.55237255 C108.304222,2.67882353 106.814444,0.516147059 103.342444,0.516147059 C100.748444,0.516147059 99.042,1.98408824 98.9106667,2.08014706 L98.9106667,0.783578431 L98.8848889,0.783578431 L90.3844444,0.783578431 L88.6922222,0.783578431 L88.6922222,7.14465686 L90.3844444,7.14465686 L90.3844444,15.9338137 L88.6922222,15.9338137 L88.6922222,22.2948922 L100.324,22.2948922 L100.324,15.9338137 L98.9228889,15.9338137 L98.9228889,9.43541176 C98.9228889,8.67348039 99.0831111,8.12418627 99.4035556,7.7877549 C99.7233333,7.45154902 100.204,7.28310784 100.845111,7.28310784 C101.485556,7.28310784 101.966,7.45154902 102.286667,7.7877549 C102.606667,8.12418627 102.767111,8.67348039 102.767111,9.43541176 L102.767111,15.9338137 L101.366222,15.9338137 L101.366222,22.2948922 L111.815556,22.2948922 L111.815556,15.9338137 L110.152889,15.9338137 Z" id="Fill-3"></path>
<path d="M79.7001778,2.66369314 L79.7001778,0.783555882 L79.6790667,0.783555882 L71.1199556,0.783555882 L69.4772889,0.783555882 L69.4772889,7.14463431 L71.1199556,7.14463431 L71.1199556,15.9337912 L69.4772889,15.9337912 L69.4772889,22.2950951 L83.0646222,22.2950951 L83.0646222,15.9337912 L79.7001778,15.9337912 L79.7001778,14.6663108 C79.7001778,11.878801 80.2855111,9.86833039 81.4584,8.63737941 C82.6290667,7.40778137 85.0177333,7.14463431 87.8259556,7.14463431 L87.8259556,0.78085 C87.8259556,0.78085 86.7066222,0.51612451 85.1577333,0.51612451 C81.3212889,0.51612451 79.9512889,2.40054608 79.7001778,2.66369314" id="Fill-1"></path>
<path d="M56.2973111,0.783465686 L44.4010889,0.783465686 L44.4010889,7.1287598 L46.0022,7.1287598 L50.0822,22.2950049 L62.9697556,22.2950049 L66.9308667,7.14454412 L68.5746444,7.14454412 L68.5746444,0.783465686 L57.3644222,0.783465686 L57.3644222,7.14454412 L59.4488667,7.14454412 L59.4488667,9.7762402 C59.4488667,9.7762402 59.4182,11.9434265 59.0773111,12.9389657 C58.7648667,13.8524265 58.0059778,15.4060539 56.9153111,15.9612108 C55.8250889,15.4060539 55.0657556,13.8524265 54.7535333,12.9389657 C54.4128667,11.9434265 54.3846444,9.87906373 54.3828667,9.7762402 L54.3824222,7.14454412 L56.2973111,7.14454412 L56.2973111,0.783465686 Z" id="Fill-5"></path>
<path d="M34.5900667,13.4765343 C34.5900667,14.3550441 34.4049556,14.9877696 34.0360667,15.3753873 C33.6669556,15.7625539 33.1131778,15.9564755 32.3754,15.9564755 C31.6369556,15.9564755 31.0829556,15.7625539 30.7142889,15.3753873 C30.3449556,14.9877696 30.1607333,14.3550441 30.1607333,13.4765343 L30.1607333,9.60193627 C30.1607333,8.72432843 30.3449556,8.09115196 30.7142889,7.70353431 C31.0829556,7.31591667 31.6369556,7.12267157 32.3754,7.12267157 C33.1131778,7.12267157 33.6669556,7.31591667 34.0360667,7.70353431 C34.4049556,8.09115196 34.5900667,8.72432843 34.5900667,9.60193627 L34.5900667,13.4765343 Z M40.7951778,3.0347598 C39.7891778,2.09198529 38.5736222,1.38777941 37.1485111,0.923269608 C35.7225111,0.458083333 34.1316222,0.225377451 32.3754,0.225377451 C30.6187333,0.225377451 29.0276222,0.458083333 27.6025111,0.923269608 C26.1762889,1.38777941 24.9611778,2.09198529 23.9558444,3.0347598 C22.9498444,3.9777598 22.1800667,5.15955392 21.6456222,6.57946569 C21.1109556,8.00073039 20.8434,9.65402451 20.8434,11.5395735 C20.8434,13.4512794 21.1109556,15.1106618 21.6456222,16.5183971 C22.1800667,17.9261324 22.9498444,19.1016127 23.9558444,20.0441618 C24.9611778,20.9873873 26.1762889,21.6904657 27.6025111,22.1558775 C29.0276222,22.6208382 30.6187333,22.8530931 32.3754,22.8530931 C34.1316222,22.8530931 35.7225111,22.6208382 37.1485111,22.1558775 C38.5736222,21.6904657 39.7891778,20.9873873 40.7951778,20.0441618 C41.8005111,19.1016127 42.5705111,17.9261324 43.1047333,16.5183971 C43.6396222,15.1106618 43.9069556,13.4512794 43.9069556,11.5395735 C43.9069556,9.65402451 43.6396222,8.00073039 43.1047333,6.57946569 C42.5705111,5.15955392 41.8005111,3.9777598 40.7951778,3.0347598 Z" id="Fill-10"></path>
<path d="M17.8321333,10.3674529 C16.4319111,9.18205098 14.2550222,8.44740392 11.3023556,8.16373725 C10.7165778,8.11187451 10.2332444,8.05369804 9.85124444,7.9901098 C9.46968889,7.92539412 9.17591111,7.83204118 8.95391111,7.75808039 C8.21235556,7.51049216 7.76657778,6.4721098 9.06857778,6.06036471 C9.51791111,5.91830588 10.2719111,5.82878627 11.3405778,5.82878627 C11.4339111,5.82878627 11.5339111,5.83419804 11.6279111,5.83464902 L11.6279111,7.33303137 L18.6410222,7.33303137 L18.6410222,0.949403922 C18.6410222,0.949403922 13.6819111,0.225354902 9.73702222,0.225354902 C8.00546667,0.225354902 6.5228,0.406423529 5.28835556,0.768109804 C4.05324444,1.13002157 3.04168889,1.62677647 2.2528,2.25950196 C1.46346667,2.89267843 0.8908,3.64198235 0.534355556,4.50673725 C0.177911111,5.37239412 -8.88888889e-05,6.30862941 -8.88888889e-05,7.31589412 C-8.88888889e-05,9.48601176 0.757244444,11.1652373 2.27191111,12.3528941 C3.78613333,13.5416784 5.86724444,14.3164627 8.5148,14.677698 C9.71124444,14.8585412 10.5005778,15.0330706 10.8825778,15.2010608 C11.2645778,15.369051 11.4552444,15.6209235 11.4552444,15.9564529 C11.4552444,16.266502 11.2768,16.5120608 10.9208,16.6922275 C10.5636889,16.8732961 9.82568889,16.9639431 8.70613333,16.9639431 C8.52791111,16.9639431 8.33413333,16.9610118 8.12457778,16.9553745 L8.12457778,15.9564529 L1.09457778,15.9564529 L1.09457778,22.5062667 C1.09457778,22.5062667 8.37502222,22.8530706 10.3096889,22.8530706 C13.6188,22.8530706 16.0499111,22.1894529 17.6028,20.8626686 C19.1554667,19.5358843 19.9321333,17.7245216 19.9321333,15.4308353 C19.9321333,13.2404235 19.2316889,11.5524039 17.8321333,10.3674529" id="Fill-7"></path>
</g>
</g>
</g>
</svg>