<?xml version="1.0" encoding="utf-8"?>
<svg viewBox="379.885 224.138 200 200" xmlns="http://www.w3.org/2000/svg" xmlns:bx="https://boxy-svg.com">
  <defs>
    <bx:grid x="179.885" y="124.138" width="100" height="100"/>
  </defs>
  <rect x="391.303" y="294.074" width="107.339" height="61.557" style="fill: rgb(255, 255, 255); stroke-width: 3px; stroke: rgb(6, 73, 131);"/>
  <text style="fill: rgb(6, 73, 131); font-family: Arial, sans-serif; font-size: 12px; font-weight: 700; stroke-dashoffset: -5px; white-space: pre;" x="404.902" y="327.808" transform="matrix(1.516453, 0, 0, 1.589154, -205.408798, -190.017548)">Content</text>
  <rect x="399.116" y="301.2" class="st2" width="91.634" height="4.734" style="fill: rgb(0, 113, 188); opacity: 0.9;"/>
  <rect x="399.116" y="342.489" class="st2" width="91.634" height="4.734" style="fill: rgb(0, 113, 188); opacity: 0.9;"/>
  <rect x="399.116" y="321.965" class="st2" width="8.476" height="4.228" style="fill: rgb(0, 113, 188); opacity: 0.9;"/>
  <rect x="508.326" y="294.074" width="61.801" height="61.557" style="fill: rgb(255, 255, 255); stroke-width: 3px; stroke: rgb(6, 73, 131);"/>
  <text style="fill: rgb(6, 73, 131); font-family: Arial, sans-serif; font-size: 18px; font-weight: 700; stroke-dashoffset: -5px; white-space: pre;" x="526.935" y="320.339" transform="matrix(1.277031, 0, 0, 1.299055, -148.293655, -83.750389)">Ad</text>
  <rect x="399.116" y="311.224" class="st2" width="91.634" height="4.734" style="fill: rgb(0, 113, 188); opacity: 0.9;"/>
  <rect x="399.116" y="332.537" class="st2" width="91.634" height="4.734" style="fill: rgb(0, 113, 188); opacity: 0.9;"/>
  <rect x="479.885" y="321.712" class="st2" width="10.865" height="4.734" style="fill: rgb(0, 113, 188); opacity: 0.9;"/>
  <rect x="391.303" y="235.833" width="178.824" height="6.922" style="fill: rgb(229, 229, 229); stroke: rgb(229, 229, 229);"/>
  <rect x="391.303" y="254.053" width="178.824" height="6.922" style="fill: rgb(229, 229, 229); stroke: rgb(229, 229, 229);"/>
  <rect x="391.303" y="273.825" width="178.824" height="6.922" style="fill: rgb(229, 229, 229); stroke: rgb(229, 229, 229);"/>
  <rect x="391.303" y="369.001" width="178.824" height="6.922" style="fill: rgb(229, 229, 229); stroke: rgb(229, 229, 229);"/>
  <rect x="391.303" y="386.822" width="178.824" height="6.922" style="fill: rgb(229, 229, 229); stroke: rgb(229, 229, 229);"/>
  <rect x="391.303" y="404.366" width="99.447" height="6.922" style="fill: rgb(229, 229, 229); stroke: rgb(229, 229, 229);"/>
</svg>