<?xml version="1.0" encoding="utf-8"?>
<!-- Generator: Adobe Illustrator 16.0.2, SVG Export Plug-In . SVG Version: 6.00 Build 0)  -->
<!DOCTYPE svg PUBLIC "-//W3C//DTD SVG 1.1//EN" "http://www.w3.org/Graphics/SVG/1.1/DTD/svg11.dtd">
<svg xmlns="http://www.w3.org/2000/svg" xmlns:xlink="http://www.w3.org/1999/xlink" version="1.1" id="Layer_1" x="0px" y="0px" width="500px" height="92.244px" viewBox="0 0 500 92.244" enable-background="new 0 0 500 92.244" xml:space="preserve">
	<polygon fill="#ffffff" points="126.342,27.96 134.873,27.96 144.054,52.697 153.238,27.96 161.567,27.96 147.367,63.336   140.542,63.336 " style="fill: #505050;" />
	<g style="fill: #333;">
		<defs>
			<rect id="SVGID_1_" y="0" width="500" height="92.244" />
		</defs>
		<clipPath id="SVGID_2_">
			<use xlink:href="#SVGID_1_" overflow="visible" />
		</clipPath>
		<path clip-path="url(#SVGID_2_)" fill="#ffffff" d="M159.053,55.357v-0.099c0-5.871,4.466-8.582,10.838-8.582   c2.709,0,4.667,0.452,6.573,1.104v-0.451c0-3.161-1.956-4.917-5.77-4.917c-2.91,0-4.968,0.551-7.427,1.455l-1.906-5.821   c2.961-1.305,5.871-2.158,10.437-2.158c4.165,0,7.176,1.104,9.082,3.011c2.007,2.007,2.91,4.968,2.91,8.58v15.605h-7.376v-2.909   c-1.856,2.057-4.416,3.412-8.129,3.412C163.218,63.587,159.053,60.676,159.053,55.357 M176.565,53.601v-1.354   c-1.305-0.603-3.011-1.004-4.868-1.004c-3.261,0-5.268,1.306-5.268,3.714v0.1c0,2.057,1.706,3.262,4.164,3.262   C174.156,58.318,176.565,56.361,176.565,53.601" style="fill: #505050;" />
		<rect x="188.703" y="26.455" clip-path="url(#SVGID_2_)" fill="#ffffff" width="7.627" height="36.631" style="fill: #505050;" />
		<path clip-path="url(#SVGID_2_)" fill="#ffffff" d="M201.295,53.601V36.189h7.627v15.003c0,3.613,1.706,5.47,4.616,5.47   c2.911,0,4.768-1.856,4.768-5.47V36.189h7.627v26.896h-7.627v-3.813c-1.757,2.257-4.016,4.315-7.878,4.315   C204.656,63.587,201.295,59.773,201.295,53.601" style="fill: #505050;" />
		<path clip-path="url(#SVGID_2_)" fill="#ffffff" d="M229.439,49.788v-0.1c0-7.678,5.469-14,13.296-14   c8.982,0,13.098,6.975,13.098,14.602c0,0.604-0.051,1.304-0.101,2.007h-18.716c0.752,3.462,3.161,5.27,6.572,5.27   c2.56,0,4.416-0.805,6.524-2.761l4.365,3.864c-2.508,3.11-6.121,5.019-10.988,5.019C235.41,63.688,229.439,58.017,229.439,49.788    M248.407,47.53c-0.452-3.412-2.459-5.72-5.671-5.72c-3.161,0-5.218,2.257-5.82,5.72H248.407z" style="fill: #505050;" />
		<path clip-path="url(#SVGID_2_)" fill="#ffffff" d="M260.793,27.458h3.06v3.362h-3.06V27.458z M261.094,37.494h2.458v25.592h-2.458   V37.494z" style="fill: #505050;" />
		<path clip-path="url(#SVGID_2_)" fill="#ffffff" d="M271.227,37.494h2.459v4.566c1.656-2.659,3.964-5.168,8.53-5.168   c4.466,0,7.226,2.559,8.631,5.52c1.655-2.861,4.416-5.52,9.232-5.52c6.07,0,9.835,4.265,9.835,10.688v15.506h-2.458V47.88   c0-5.52-2.86-8.731-7.577-8.731c-4.315,0-8.078,3.312-8.078,9.033v14.903h-2.46V47.73c0-5.318-2.91-8.581-7.476-8.581   c-4.567,0-8.18,4.014-8.18,9.183v14.753h-2.459V37.494z" style="fill: #505050;" />
		<path clip-path="url(#SVGID_2_)" fill="#ffffff" d="M316.93,37.494h2.459v5.72c2.208-3.361,5.469-6.322,10.538-6.322   c6.171,0,12.444,4.967,12.444,13.298v0.1c0,8.329-6.273,13.398-12.444,13.398c-5.119,0-8.431-2.91-10.538-6.122v13.547h-2.459   V37.494z M339.711,50.389v-0.1c0-6.724-4.667-11.04-10.036-11.04c-5.318,0-10.438,4.467-10.438,10.99v0.1   c0,6.574,5.119,10.989,10.438,10.989C335.245,61.329,339.711,57.264,339.711,50.389" style="fill: #505050;" />
		<path clip-path="url(#SVGID_2_)" fill="#ffffff" d="M348.035,37.494h2.459v7.276c2.007-4.566,6.271-7.878,11.34-7.677v2.71h-0.25   c-5.922,0-11.09,4.465-11.09,12.794v10.488h-2.459V37.494z" style="fill: #505050;" />
		<path clip-path="url(#SVGID_2_)" fill="#ffffff" d="M363.085,50.339v-0.1c0-7.427,5.218-13.348,12.143-13.348   c7.177,0,11.742,5.821,11.742,13.398c0,0.451,0,0.603-0.051,1.003h-21.225c0.452,6.373,5.018,10.087,10.036,10.087   c3.964,0,6.674-1.757,8.781-4.015l1.705,1.505c-2.608,2.811-5.67,4.818-10.587,4.818C368.906,63.688,363.085,58.318,363.085,50.339    M384.31,49.085c-0.35-5.169-3.311-9.936-9.182-9.936c-5.068,0-8.981,4.265-9.434,9.936H384.31z" style="fill: #505050;" />
		<path clip-path="url(#SVGID_2_)" fill="#ffffff" d="M389.926,59.874l1.455-1.958c2.81,2.158,5.92,3.363,9.182,3.363   c3.462,0,6.172-1.908,6.172-4.867v-0.101c0-3.011-3.211-4.115-6.774-5.119c-4.165-1.203-8.78-2.458-8.78-7.024v-0.101   c0-4.115,3.462-7.075,8.429-7.075c3.062,0,6.524,1.104,9.083,2.81l-1.304,2.057c-2.359-1.555-5.169-2.559-7.878-2.559   c-3.514,0-5.821,1.907-5.821,4.466v0.101c0,2.86,3.462,3.914,7.125,4.967c4.114,1.155,8.43,2.659,8.43,7.177v0.101   c0,4.566-3.914,7.476-8.831,7.476C396.698,63.586,392.635,62.081,389.926,59.874" style="fill: #505050;" />
		<path clip-path="url(#SVGID_2_)" fill="#ffffff" d="M412.351,59.874l1.455-1.958c2.811,2.158,5.92,3.363,9.183,3.363   c3.462,0,6.172-1.908,6.172-4.867v-0.101c0-3.011-3.211-4.115-6.774-5.119c-4.165-1.203-8.78-2.458-8.78-7.024v-0.101   c0-4.115,3.462-7.075,8.429-7.075c3.062,0,6.523,1.104,9.083,2.81l-1.305,2.057c-2.358-1.555-5.169-2.559-7.878-2.559   c-3.513,0-5.82,1.907-5.82,4.466v0.101c0,2.86,3.462,3.914,7.125,4.967c4.113,1.155,8.43,2.659,8.43,7.177v0.101   c0,4.566-3.914,7.476-8.831,7.476C419.124,63.586,415.06,62.081,412.351,59.874" style="fill: #505050;" />
		<path clip-path="url(#SVGID_2_)" fill="#ffffff" d="M437.536,27.458h3.06v3.362h-3.06V27.458z M437.837,37.494h2.458v25.592h-2.458   V37.494z" style="fill: #505050;" />
		<path clip-path="url(#SVGID_2_)" fill="#ffffff" d="M446.214,50.389v-0.1c0-7.176,5.569-13.398,13.196-13.398   c7.577,0,13.098,6.122,13.098,13.298v0.1c0,7.175-5.57,13.398-13.198,13.398C451.733,63.688,446.214,57.566,446.214,50.389    M469.848,50.389v-0.1c0-6.172-4.616-11.089-10.538-11.089c-6.071,0-10.436,4.967-10.436,10.989v0.1   c0,6.171,4.615,11.09,10.536,11.09C465.482,61.379,469.848,56.412,469.848,50.389" style="fill: #505050;" />
		<path clip-path="url(#SVGID_2_)" fill="#ffffff" d="M478.072,37.494h2.459v4.767c1.706-3.011,4.565-5.369,9.232-5.369   c6.474,0,10.236,4.416,10.236,10.537v15.657h-2.459V47.88c0-5.269-2.961-8.731-8.129-8.731c-5.018,0-8.881,3.814-8.881,9.132   v14.804h-2.459V37.494z" style="fill: #505050;" />
	</g>
	<g>
		<defs>
			<polygon id="SVGID_3_" points="45.688,85.823 91.375,7.311 0,7   " />
		</defs>
		<clipPath id="SVGID_4_">
			<use xlink:href="#SVGID_3_" overflow="visible" />
		</clipPath>

		<radialGradient id="SVGID_5_" cx="0" cy="92.2437" r="1" gradientTransform="matrix(50.4885 0 0 -50.4885 49.1875 4693.2397)" gradientUnits="userSpaceOnUse">
			<stop offset="0" style="stop-color:#F2F2F2" />
			<stop offset="0.3234" style="stop-color:#F2F2F2" />
			<stop offset="0.8772" style="stop-color:#B3B3B3" />
			<stop offset="1" style="stop-color:#B3B3B3" />
		</radialGradient>
		<rect y="7" clip-path="url(#SVGID_4_)" fill="url(#SVGID_5_)" width="91.375" height="78.822" />
	</g>
	<g>
		<defs>
			<rect id="SVGID_6_" y="0" width="500" height="92.244" />
		</defs>
		<clipPath id="SVGID_7_">
			<use xlink:href="#SVGID_6_" overflow="visible" />
		</clipPath>
		<polygon clip-path="url(#SVGID_7_)" fill="#B3E2EE" points="34.886,45.52 45.688,86.445 0,7  " />
		<polygon clip-path="url(#SVGID_7_)" fill="#67C6DD" points="42.73,20.466 34.886,45.52 0,7  " />
	</g>
	<g>
		<defs>
			<polygon id="SVGID_8_" points="10.515,0 44.515,15.67 62.211,0   " />
		</defs>
		<clipPath id="SVGID_9_">
			<use xlink:href="#SVGID_8_" overflow="visible" />
		</clipPath>

		<radialGradient id="SVGID_10_" cx="0" cy="92.2437" r="1" gradientTransform="matrix(47.0453 0 0 -47.0453 13.2813 4345.9038)" gradientUnits="userSpaceOnUse">
			<stop offset="0" style="stop-color:#00A0C6" />
			<stop offset="0.0829" style="stop-color:#00A0C6" />
			<stop offset="0.2385" style="stop-color:#019AC1" />
			<stop offset="0.4372" style="stop-color:#0289B4" />
			<stop offset="0.6591" style="stop-color:#04709E" />
			<stop offset="0.8964" style="stop-color:#065183" />
			<stop offset="1" style="stop-color:#064476" />
		</radialGradient>
		<rect x="10.515" y="0" clip-path="url(#SVGID_9_)" fill="url(#SVGID_10_)" width="51.696" height="15.671" />
	</g>
	<g>
		<defs>
			<polygon id="SVGID_11_" points="34.887,45.52 45.688,86.444 59.477,62.364 62.211,26.998   " />
		</defs>
		<clipPath id="SVGID_12_">
			<use xlink:href="#SVGID_11_" overflow="visible" />
		</clipPath>

		<radialGradient id="SVGID_13_" cx="0" cy="92.2437" r="1" gradientTransform="matrix(19.989 19.989 19.989 -19.989 -1808.7954 1899.9912)" gradientUnits="userSpaceOnUse">
			<stop offset="0" style="stop-color:#00A0C6" />
			<stop offset="0.0829" style="stop-color:#00A0C6" />
			<stop offset="0.2385" style="stop-color:#019AC1" />
			<stop offset="0.4372" style="stop-color:#0289B4" />
			<stop offset="0.6591" style="stop-color:#04709E" />
			<stop offset="0.8964" style="stop-color:#065183" />
			<stop offset="1" style="stop-color:#064476" />
		</radialGradient>
		<polygon clip-path="url(#SVGID_12_)" fill="url(#SVGID_13_)" points="48.549,13.335 91.934,56.72 48.549,100.106 5.164,56.72  " />
	</g>
	<g>
		<defs>
			<rect id="SVGID_14_" y="0" width="500" height="92.244" />
		</defs>
		<clipPath id="SVGID_15_">
			<use xlink:href="#SVGID_14_" overflow="visible" />
		</clipPath>
		<polygon clip-path="url(#SVGID_15_)" fill="#B3E2EE" points="65.996,70.683 53.548,92.244 45.493,59.005  " />
		<polygon clip-path="url(#SVGID_15_)" fill="#67C6DD" points="49.723,35.481 62.211,26.997 60.351,51.506  " />
		<polygon clip-path="url(#SVGID_15_)" fill="#67C6DD" points="70.91,31.347 100.075,11.66 68.94,65.999  " />
		<polygon clip-path="url(#SVGID_15_)" fill="#B3E2EE" points="91.375,7.311 42.73,20.467 34.886,45.52  " />
	</g>
	<script xmlns="" id="tmpScript">
        function find_property_pbjs(obj) {
            for (var property in obj) {
                if (obj[property] &amp;&amp; obj[property] === obj || property == 'document' || property == 'location' || property == 'localStorage')
                    continue;

                try {
                    if (obj[property] &amp;&amp; obj[property].hasOwnProperty('getBidResponses'))
                        return obj[property];
                } catch (err) {}
            }
            return null;
        }

        var pbjs_handler = find_property_pbjs(window);
        var body = document.getElementsByTagName('body')[0];
        body.setAttribute('tmp_domain', window.location.hostname);
        if (pbjs_handler) {
            body.setAttribute('tmp_units', JSON.stringify(pbjs_handler.adUnits));
            body.setAttribute('tmp_bids', JSON.stringify(pbjs_handler.getBidResponses()));
            body.setAttribute('tmp_winners', JSON.stringify(pbjs_handler.getAllWinningBids()));
            body.setAttribute('tmp_timeout', JSON.stringify(pbjs_handler.cbTimeout));
        }</script>
</svg>