<?xml version="1.0" encoding="UTF-8"?>
<svg width="26px" height="27px" viewBox="0 0 26 27" version="1.1" xmlns="http://www.w3.org/2000/svg" xmlns:xlink="http://www.w3.org/1999/xlink">
    <title>D6FE0A93-F631-4864-94C5-4F75266DAB15</title>
    <g id="CxM---MVP---Mini" stroke="none" stroke-width="1" fill="none" fill-rule="evenodd">
        <g id="01-CxM-Landing" transform="translate(-1005.000000, -919.000000)">
            <g id="Tiles" transform="translate(247.000000, 912.000000)">
                <g id="Tile/Cleanio-Copy-2" transform="translate(740.000000, 0.000000)">
                    <g id="Icon/Category/Identity---Blue" transform="translate(18.000000, 7.000000)">
                        <g id="Group-19" transform="translate(0.684211, 0.710526)">
                            <path d="M24.6315789,12.7894737 C24.6315789,19.8528158 19.1175263,25.5789474 12.3157895,25.5789474 C5.51473684,25.5789474 0,19.8528158 0,12.7894737 C0,5.72684211 5.51473684,0 12.3157895,0 C19.1175263,0 24.6315789,5.72684211 24.6315789,12.7894737" id="Fill-1"></path>
                            <path d="M24.6315789,12.7894737 C24.6315789,19.8528158 19.1175263,25.5789474 12.3157895,25.5789474 C5.51473684,25.5789474 0,19.8528158 0,12.7894737 C0,5.72684211 5.51473684,0 12.3157895,0 C19.1175263,0 24.6315789,5.72684211 24.6315789,12.7894737 Z" id="Stroke-3" stroke="#52A4E2" stroke-width="1.02631579"></path>
                            <path d="M21.9234737,5.10477632 C23.1030526,6.90169737 19.6375263,11.6615132 14.1836842,15.73425 C8.73052632,19.8076974 3.35331579,21.6529342 2.17442105,19.8553026 C0.994842105,18.0576711 4.45968421,13.2985658 9.91284211,9.22582895 C15.3666842,5.15238158 20.7438947,3.30785526 21.9234737,5.10477632" id="Fill-5"></path>
                            <path d="M21.9234737,5.10477632 C23.1030526,6.90169737 19.6375263,11.6615132 14.1836842,15.73425 C8.73052632,19.8076974 3.35331579,21.6529342 2.17442105,19.8553026 C0.994842105,18.0576711 4.45968421,13.2985658 9.91284211,9.22582895 C15.3666842,5.15238158 20.7438947,3.30785526 21.9234737,5.10477632 Z" id="Stroke-7" stroke="#52A4E2" stroke-width="1.02631579"></path>
                            <path d="M0.0734842105,11.4939711 C6.29569474,8.84655 19.3955895,9.70770789 24.1488,16.8975237" id="Stroke-9" stroke="#52A4E2" stroke-width="1.02631579"></path>
                            <path d="M14.0884421,25.5407921 C7.51728421,23.0859237 1.37307368,7.38116053 16.2060737,0.627607895" id="Stroke-11" stroke="#52A4E2" stroke-width="1.02631579"></path>
                            <path d="M9.90032105,10.3678579 C9.90032105,11.7413053 8.82816316,12.8547 7.50558421,12.8547 C6.18300526,12.8547 5.11084737,11.7413053 5.11084737,10.3678579 C5.11084737,8.99441053 6.18300526,7.88101579 7.50558421,7.88101579 C8.82816316,7.88101579 9.90032105,8.99441053 9.90032105,10.3678579" id="Fill-13" fill="#1778C2"></path>
                            <path d="M20.2403158,12.2822289 C20.2403158,13.2634658 19.4746842,14.0585447 18.5297895,14.0585447 C17.5848947,14.0585447 16.8192632,13.2634658 16.8192632,12.2822289 C16.8192632,11.3009921 17.5848947,10.5059132 18.5297895,10.5059132 C19.4746842,10.5059132 20.2403158,11.3009921 20.2403158,12.2822289" id="Fill-15" fill="#1778C2"></path>
                            <path d="M10.4775895,19.4402132 C10.4775895,20.6175553 9.55869474,21.5717921 8.42495789,21.5717921 C7.29190526,21.5717921 6.37232632,20.6175553 6.37232632,19.4402132 C6.37232632,18.2628711 7.29190526,17.3086342 8.42495789,17.3086342 C9.55869474,17.3086342 10.4775895,18.2628711 10.4775895,19.4402132" id="Fill-17" fill="#1778C2"></path>
                        </g>
                    </g>
                </g>
            </g>
        </g>
    </g>
</svg>